<svg width="32" height="32" viewBox="0 0 32 32" fill="none" xmlns="http://www.w3.org/2000/svg">
<path d="M22.9437 11.5268C25.0055 12.9999 27.5313 13.8666 30.2593 13.8666V8.61983C29.743 8.61994 29.228 8.56613 28.7229 8.45917V12.5891C25.9952 12.5891 23.4697 11.7224 21.4073 10.2494V20.9566C21.4073 26.3129 17.063 30.6547 11.7043 30.6547C9.70487 30.6547 7.84645 30.0505 6.30267 29.0143C8.06465 30.815 10.5219 31.932 13.2403 31.932C18.5993 31.932 22.9439 27.5902 22.9439 22.2337V11.5268H22.9437ZM24.8389 6.23342C23.7852 5.08284 23.0934 3.59594 22.9437 1.9521V1.27725H21.4878C21.8542 3.36657 23.1042 5.15155 24.8389 6.23342ZM9.69204 24.9041C9.10333 24.1326 8.78519 23.1888 8.78662 22.2184C8.78662 19.7686 10.7737 17.7823 13.2252 17.7823C13.6821 17.7822 14.1362 17.8522 14.5716 17.9902V12.6262C14.0628 12.5565 13.5492 12.5269 13.0359 12.5377V16.7129C12.6002 16.5748 12.1459 16.5046 11.6889 16.5051C9.23736 16.5051 7.2504 18.4912 7.2504 20.9413C7.2504 22.6736 8.24361 24.1735 9.69204 24.9041Z" fill="#FF004F"/>
<path d="M21.4073 10.2493C23.4697 11.7223 25.9951 12.589 28.7229 12.589V8.45906C27.2003 8.1349 25.8523 7.33961 24.8389 6.23342C23.1041 5.15144 21.8542 3.36646 21.4877 1.27725H17.6635V22.2335C17.6549 24.6766 15.6712 26.6548 13.225 26.6548C11.7834 26.6548 10.5028 25.968 9.69169 24.9041C8.24336 24.1735 7.25016 22.6735 7.25016 20.9414C7.25016 18.4915 9.23712 16.5052 11.6886 16.5052C12.1583 16.5052 12.611 16.5783 13.0357 16.713V12.5379C7.77114 12.6466 3.53717 16.946 3.53717 22.2336C3.53717 24.8732 4.59153 27.2661 6.30276 29.0145C7.84654 30.0505 9.70495 30.6548 11.7044 30.6548C17.0632 30.6548 21.4074 26.3128 21.4074 20.9566V10.2493H21.4073Z" fill="black"/>
<path d="M28.7229 8.45907V7.34236C27.3499 7.34444 26.0038 6.96011 24.8389 6.23332C25.8701 7.36175 27.228 8.13984 28.7229 8.45907ZM21.4878 1.27726C21.4528 1.07759 21.426 0.876603 21.4073 0.674849V0H16.1271V20.9565C16.1187 23.3992 14.1351 25.3774 11.6886 25.3774C10.9704 25.3774 10.2923 25.207 9.69172 24.9042C10.5028 25.968 11.7834 26.6547 13.225 26.6547C15.671 26.6547 17.655 24.6767 17.6636 22.2336V1.27726H21.4878ZM13.0359 12.5379V11.349C12.5947 11.2888 12.1499 11.2585 11.7045 11.2587C6.3453 11.2586 2.00098 15.6007 2.00098 20.9565C2.00098 24.3143 3.70837 27.2735 6.30289 29.0142C4.59166 27.266 3.53731 24.873 3.53731 22.2335C3.53731 16.946 7.77117 12.6466 13.0359 12.5379Z" fill="#00F2EA"/>
</svg>
